<?xml version="1.0" encoding="UTF-8" standalone="no"?>
<svg width="512" height="512" viewBox="0 0 512 512" fill="none" xmlns="http://www.w3.org/2000/svg">
  <rect width="512" height="512" rx="128" fill="#4F46E5"/>
  <path d="M256 96L384 160V288L256 352L128 288V160L256 96Z" fill="white"/>
  <path d="M256 224L320 192V256L256 288L192 256V192L256 224Z" fill="#4F46E5"/>
  <path d="M256 96V160L320 192L384 160L256 96Z" fill="#818CF8"/>
  <path d="M256 96V160L192 192L128 160L256 96Z" fill="#818CF8"/>
  <path d="M256 352V288L320 256L384 288L256 352Z" fill="#818CF8"/>
  <path d="M256 352V288L192 256L128 288L256 352Z" fill="#818CF8"/>
</svg>
